<svg id="Layer_1" data-name="Layer 1" xmlns="http://www.w3.org/2000/svg" viewBox="0 0 57.08 56.5"><defs><style>.cls-1{fill:#fff;}</style></defs><path class="cls-1" d="M30.69,17.28,30.62,17l.45-.3a.37.37,0,0,0,.14-.14.27.27,0,0,0,0-.2L30.68,14a4.1,4.1,0,0,0-.25-.77.8.8,0,0,0-1.05-.47,2.26,2.26,0,0,0-.55.22.91.91,0,0,0-.39.5l.77,3.3a.23.23,0,0,0,.1.16.48.48,0,0,0,.18.07l.5.08.07.33-2.72.64-.08-.33.53-.31a.29.29,0,0,0,.13-.14.27.27,0,0,0,0-.2l-.79-3.39a.31.31,0,0,0-.12-.19.46.46,0,0,0-.24-.07l-.56-.08-.06-.28,1.92-.84.2.87h0a2.12,2.12,0,0,1,.66-.93,2.09,2.09,0,0,1,.79-.36,2.19,2.19,0,0,1,.67-.05,1.39,1.39,0,0,1,.62.21,1.5,1.5,0,0,1,.5.55l.12.05.8,3.46a.22.22,0,0,0,.11.16.75.75,0,0,0,.18.07l.49.07.08.33ZM34,16.52l-.07-.33.46-.3a.32.32,0,0,0,.14-.14.29.29,0,0,0,0-.21L34,13.25a3.77,3.77,0,0,0-.25-.78,1,1,0,0,0-.39-.44,1,1,0,0,0-.65,0,1.74,1.74,0,0,0-.57.25.87.87,0,0,0-.41.58l-.22-.25a3.62,3.62,0,0,1,.52-.92,1.57,1.57,0,0,1,.53-.43A2.42,2.42,0,0,1,33,11a2,2,0,0,1,.87,0,1.48,1.48,0,0,1,.74.45,2.27,2.27,0,0,1,.47,1l.65,2.78a.21.21,0,0,0,.1.16.29.29,0,0,0,.19.06l.54.07.07.33Z" transform="translate(-8.86 -10.66)"/><path class="cls-1" d="M38.2,16.54a1.47,1.47,0,0,1-.76-.3,1.33,1.33,0,0,1-.45-.6,1.44,1.44,0,0,1-.1-.74,1.52,1.52,0,0,1,.34-.84,2,2,0,0,1,.7-.5,3.2,3.2,0,0,1,.86-.22,3.24,3.24,0,0,1,.82,0l.22,0,.3.06.22,0,.09-.75a1.11,1.11,0,0,0-.1-.76.81.81,0,0,0-.58-.26,1.45,1.45,0,0,0-.5,0,3.45,3.45,0,0,0-.51.18l-.48.24-.39.21-.2,0,0-1.07c.19-.06.39-.11.61-.16A4.64,4.64,0,0,1,39.8,11a3.34,3.34,0,0,1,1,.27,1.64,1.64,0,0,1,.75.62A1.5,1.5,0,0,1,41.71,13l-.32,2.74a.33.33,0,0,0,.09.29.48.48,0,0,0,.31.15H42l.26,0h.11l0,.39a1.61,1.61,0,0,1-.34.15,3.64,3.64,0,0,1-.47.14,1.92,1.92,0,0,1-.47,0,1.29,1.29,0,0,1-.75-.29.8.8,0,0,1-.2-.73h0a1.82,1.82,0,0,1-.65.52,1.63,1.63,0,0,1-.66.18A2.71,2.71,0,0,1,38.2,16.54Zm.8-.71a1.73,1.73,0,0,0,.59,0,1.08,1.08,0,0,0,.53-.34l.18-1.55a4.34,4.34,0,0,0-1,0,1.27,1.27,0,0,0-.7.28.91.91,0,0,0-.31.64,1,1,0,0,0,.06.57.82.82,0,0,0,.29.32A.93.93,0,0,0,39,15.83Z" transform="translate(-8.86 -10.66)"/><path class="cls-1" d="M44.06,17.74a1.87,1.87,0,0,1-.93-.74,2.11,2.11,0,0,1-.33-1.13,3.46,3.46,0,0,1,.26-1.34,4,4,0,0,1,.84-1.31,2.71,2.71,0,0,1,1.21-.7,2.31,2.31,0,0,1,1.43.13,1.6,1.6,0,0,1,.67.44,2.06,2.06,0,0,1,.35.54l.09-.25.62-1.57a.34.34,0,0,0,0-.22.49.49,0,0,0-.16-.21l-.52-.45.11-.27,2.2.54-2.59,6.53a.34.34,0,0,0,0,.22.71.71,0,0,0,.17.21l.43.37-.1.27-2-.38-.07,0,.34-.86h0a2.1,2.1,0,0,1-.84.35,1.86,1.86,0,0,1-.67,0A3.67,3.67,0,0,1,44.06,17.74Zm.94-.53a1.37,1.37,0,0,0,.34.1,1.19,1.19,0,0,0,.42,0,.83.83,0,0,0,.39-.16L47.41,14a1,1,0,0,0-.23-.25,3.15,3.15,0,0,0-.33-.22,1.71,1.71,0,0,0-.31-.15,1.2,1.2,0,0,0-.85,0,1.6,1.6,0,0,0-.71.5,2.8,2.8,0,0,0-.51.86,3.79,3.79,0,0,0-.28,1.1,1.57,1.57,0,0,0,.15.88A1.18,1.18,0,0,0,45,17.21Z" transform="translate(-8.86 -10.66)"/><path class="cls-1" d="M49.8,20.87a3,3,0,0,1-.91-1.08,2.36,2.36,0,0,1-.19-1.32A3.22,3.22,0,0,1,49.34,17a3.17,3.17,0,0,1,1.12-.95,2.64,2.64,0,0,1,1.37-.28,2.59,2.59,0,0,1,1.39.53,2.46,2.46,0,0,1,.81,1,2.11,2.11,0,0,1,.15,1.1,2.21,2.21,0,0,1-.4,1l-.11.13-.14.18-.12.12-2.94-2.19.33-.39,1.86,1.38a3.31,3.31,0,0,0,.43-.73,1.27,1.27,0,0,0,.09-.65.8.8,0,0,0-.36-.53,1,1,0,0,0-.6-.22,1.37,1.37,0,0,0-.61.17,2.16,2.16,0,0,0-.56.42,4.78,4.78,0,0,0-.47.54,3.51,3.51,0,0,0-.54,1,1.64,1.64,0,0,0,0,1,1.81,1.81,0,0,0,.7.88,2.31,2.31,0,0,0,.62.35,2.86,2.86,0,0,0,.58.14,4.4,4.4,0,0,0,.45.05l.12.09-.29.39a4.43,4.43,0,0,1-1.15-.1A2.93,2.93,0,0,1,49.8,20.87Z" transform="translate(-8.86 -10.66)"/><path class="cls-1" d="M55.21,26.87a6.55,6.55,0,0,1-.5-1,4.06,4.06,0,0,1-.26-1.19l5.63-3.42a.3.3,0,0,0,.15-.17.41.41,0,0,0,0-.27l-.1-.59.25-.15,1.39,1.68-2.7,1.64-.33.19a2,2,0,0,1,.87.2,1.81,1.81,0,0,1,.54.4,3.21,3.21,0,0,1,.3.38,1.92,1.92,0,0,1,.3,1.15,2.28,2.28,0,0,1-.43,1.11,3.2,3.2,0,0,1-1,.92,3.45,3.45,0,0,1-1.48.51A2.67,2.67,0,0,1,56.36,28,2.87,2.87,0,0,1,55.21,26.87Zm.47-.29a1.27,1.27,0,0,0,.7.57,1.79,1.79,0,0,0,.92,0,3.22,3.22,0,0,0,1-.4,3.88,3.88,0,0,0,.89-.72,1.61,1.61,0,0,0,.42-.79,1.28,1.28,0,0,0-.19-.85A2.08,2.08,0,0,0,59,24a.9.9,0,0,0-.61-.23l-2.87,1.75a1.13,1.13,0,0,0,0,.34,1.75,1.75,0,0,0,.05.4A1,1,0,0,0,55.68,26.58Z" transform="translate(-8.86 -10.66)"/><path class="cls-1" d="M54.57,30l1.1-.16,0,.2a1.44,1.44,0,0,0,0,.24c0,.11,0,.21,0,.32s0,.21,0,.3a.69.69,0,0,0,0,.2,1.17,1.17,0,0,0,.09.24.37.37,0,0,0,.14.18,1.16,1.16,0,0,0,.35.18,2.2,2.2,0,0,0,.46.09l.74.07.6-.68,3.27-2.72a.36.36,0,0,0,.11-.16.85.85,0,0,0,.05-.24l0-.42.32-.09.79,2.67-.33.09L62,29.62,59.6,31.54l-.52.4v0l3.54.22.08-.78.33-.1.58,2-.32.1L63,33.09l-.17-.16a.3.3,0,0,0-.18-.08l-5.88-.45a3.52,3.52,0,0,1-1.15-.25,1.67,1.67,0,0,1-.62-.5,2.29,2.29,0,0,1-.3-.63c0-.13-.06-.25-.08-.39s0-.26,0-.38A1.19,1.19,0,0,1,54.57,30Z" transform="translate(-8.86 -10.66)"/><path class="cls-1" d="M58.92,37.73l2.07.13-.05.47-1.1.27a.48.48,0,0,0-.16.08.79.79,0,0,0-.13.13,4.16,4.16,0,0,0-.33.49,4.8,4.8,0,0,0-.26.57,2.62,2.62,0,0,0-.13.52,1.58,1.58,0,0,0,.24,1.1,1.15,1.15,0,0,0,.87.5,1,1,0,0,0,.75-.18,2.17,2.17,0,0,0,.54-.66q.21-.42.36-.81a6.2,6.2,0,0,1,.36-.79,2.27,2.27,0,0,1,.85-.91,2,2,0,0,1,2.29.25,2.48,2.48,0,0,1,.68,1,3,3,0,0,1,.15,1.35,5.64,5.64,0,0,1-.15.82c-.06.26-.13.52-.21.76s-.16.46-.24.66l-1.93-.21,0-.46,1-.24a.4.4,0,0,0,.16-.08l.12-.12A1.49,1.49,0,0,0,65,42a3.27,3.27,0,0,0,.18-.47,2.16,2.16,0,0,0,.1-.43,1.41,1.41,0,0,0-.21-1,.94.94,0,0,0-.69-.42,1.3,1.3,0,0,0-.76.13,1.49,1.49,0,0,0-.62.73c-.12.26-.23.52-.33.77s-.23.51-.38.81a3.44,3.44,0,0,1-.47.63,1.78,1.78,0,0,1-.67.46,1.82,1.82,0,0,1-.92.1,2.16,2.16,0,0,1-1.09-.44,2.36,2.36,0,0,1-.77-1.07,3.66,3.66,0,0,1-.15-1.74,5.76,5.76,0,0,1,.15-.79c.08-.27.16-.54.27-.81S58.81,38,58.92,37.73Z" transform="translate(-8.86 -10.66)"/><path class="cls-1" d="M57.28,44.81a1.41,1.41,0,0,1,.48-.65,1.39,1.39,0,0,1,.7-.28,1.64,1.64,0,0,1,1.46.64,1.89,1.89,0,0,1,.3.81,3,3,0,0,1,0,.89,3.6,3.6,0,0,1-.2.8s0,.1-.09.2l-.14.27a1,1,0,0,0-.09.2l.7.28a1.05,1.05,0,0,0,.76.1.8.8,0,0,0,.4-.48,1.35,1.35,0,0,0,.09-.5,3.27,3.27,0,0,0,0-.54c0-.19-.07-.36-.11-.52l-.1-.43.08-.2,1,.26q0,.3,0,.63a4.75,4.75,0,0,1-.09.71,4.67,4.67,0,0,1-.24.79,3.13,3.13,0,0,1-.5.87,1.65,1.65,0,0,1-.8.56,1.54,1.54,0,0,1-1.1-.09l-2.57-1a.32.32,0,0,0-.3,0,.45.45,0,0,0-.22.26,1.31,1.31,0,0,0,0,.21l0,.27,0,.1-.36-.14a1.49,1.49,0,0,1-.06-.37,2.66,2.66,0,0,1,0-.49,1.5,1.5,0,0,1,.09-.45,1.29,1.29,0,0,1,.47-.65.8.8,0,0,1,.76,0v0a2.14,2.14,0,0,1-.34-.77,1.94,1.94,0,0,1,0-.68A2.66,2.66,0,0,1,57.28,44.81Zm.47,1a1.71,1.71,0,0,0-.11.58,1,1,0,0,0,.19.6l1.44.58a3.55,3.55,0,0,0,.27-1,1.35,1.35,0,0,0-.09-.76.9.9,0,0,0-.54-.46,1,1,0,0,0-.56-.09.73.73,0,0,0-.38.2A.87.87,0,0,0,57.75,45.77Z" transform="translate(-8.86 -10.66)"/><path class="cls-1" d="M58.13,54.69l-.44-.44,1-1.48-2.84-1.9a.48.48,0,0,0-.42-.07A1.3,1.3,0,0,0,55,51a1.32,1.32,0,0,0-.29.29,1.9,1.9,0,0,0-.19.35c-.05.13-.09.24-.11.31l-.08.12L54,51.89c0-.09,0-.22,0-.4a3.62,3.62,0,0,1,.13-.58,2.53,2.53,0,0,1,.3-.62,2.42,2.42,0,0,1,.55-.59,1.44,1.44,0,0,1,.63-.26.91.91,0,0,1,.61.16l3.12,2.08.48-.72.36.24c-.07.18-.13.35-.17.49a.64.64,0,0,0,0,.41.82.82,0,0,0,.33.39l.56.43L60.5,54l-1.31-.88Z" transform="translate(-8.86 -10.66)"/><path class="cls-1" d="M52,53.38l4.63,2a.43.43,0,0,0,.21,0,.69.69,0,0,0,.25-.06l.38-.16.24.25-2,1.92-.24-.25.42-.68-2.68-1.19-.68-.34,0,0,1.36,3.31.74-.3.24.25-1.52,1.44L53,59.38l.13-.44a1.53,1.53,0,0,0,.07-.24.31.31,0,0,0,0-.21L51.87,55,51.5,53.8Z" transform="translate(-8.86 -10.66)"/><path class="cls-1" d="M49.52,55.54l.18.29-.46.51a.76.76,0,0,0-.09.18.27.27,0,0,0,0,.19L51,59.64a.37.37,0,0,0,.17.14.47.47,0,0,0,.26,0l.61-.12.16.25-1.67,1.42L48.09,57.4a.26.26,0,0,0-.16-.13.31.31,0,0,0-.19,0l-.63.16-.18-.29Zm2.19,6.3a.86.86,0,0,1,.41-.13.84.84,0,0,1,.41.08.72.72,0,0,1,.32.28.7.7,0,0,1,.08.61.84.84,0,0,1-.39.5.94.94,0,0,1-.64.15.65.65,0,0,1-.5-.33.64.64,0,0,1-.12-.42.91.91,0,0,1,.11-.42A.82.82,0,0,1,51.71,61.84Z" transform="translate(-8.86 -10.66)"/><path class="cls-1" d="M47,57.29l.12.32L46.6,58a.36.36,0,0,0-.12.16.31.31,0,0,0,0,.19l2.09,5.78a.28.28,0,0,0,.14.16.54.54,0,0,0,.24,0l.62,0,.1.28-1.92,1L45.9,60.55l-1.23,2.66.68,0,.11.32-2.14.77L43.21,64l.49-.39a1.07,1.07,0,0,0,.18-.19,1.13,1.13,0,0,0,.12-.21l.79-1.5-2.63-1.9a.75.75,0,0,0-.2-.1,1,1,0,0,0-.25,0h-.46l-.12-.32,2.44-.88.12.32-.35.33,2,1.47.43-.46-.51-1.41a.31.31,0,0,0-.12-.15.42.42,0,0,0-.2,0h-.51l-.11-.32Z" transform="translate(-8.86 -10.66)"/><path class="cls-1" d="M38.32,60l0,2.07-.47,0L37.51,61a.39.39,0,0,0-.1-.16.79.79,0,0,0-.13-.13,5.75,5.75,0,0,0-.51-.3,4.79,4.79,0,0,0-.59-.23,2.27,2.27,0,0,0-.51-.1,1.61,1.61,0,0,0-1.1.29,1.17,1.17,0,0,0-.45.9,1,1,0,0,0,.22.74,2,2,0,0,0,.69.5,6.13,6.13,0,0,0,.83.32,6.72,6.72,0,0,1,.81.31,2.3,2.3,0,0,1,.95.81,1.91,1.91,0,0,1,.29,1.19,1.86,1.86,0,0,1-.42,1.11,2.38,2.38,0,0,1-1,.73,3,3,0,0,1-1.34.22,7.53,7.53,0,0,1-.83-.1l-.77-.17-.67-.21L33,64.73l.46,0,.29,1a.6.6,0,0,0,.09.15L34,66a2.15,2.15,0,0,0,.38.21,3.68,3.68,0,0,0,.47.15,2.18,2.18,0,0,0,.44.08,1.41,1.41,0,0,0,1-.26,1,1,0,0,0,.39-.72,1.34,1.34,0,0,0-.17-.75,1.52,1.52,0,0,0-.77-.58l-.78-.29a7.32,7.32,0,0,1-.83-.34,3,3,0,0,1-.66-.43,1.85,1.85,0,0,1-.49-.64,1.9,1.9,0,0,1-.15-.92,2.12,2.12,0,0,1,.38-1.11,2.28,2.28,0,0,1,1-.82,3.81,3.81,0,0,1,1.74-.25,5.89,5.89,0,0,1,.8.11c.27.06.54.14.82.22S38.07,59.88,38.32,60Z" transform="translate(-8.86 -10.66)"/><path class="cls-1" d="M32.61,59.26l-.1.32h-.62a.41.41,0,0,0-.19,0,.28.28,0,0,0-.12.16l-1,3.26a.39.39,0,0,0,0,.26.47.47,0,0,0,.17.22l.47.36-.09.28L29,63.9l.36-1.14h0a6,6,0,0,1-.63.47,1.84,1.84,0,0,1-.64.26,1.24,1.24,0,0,1-.66,0,1.93,1.93,0,0,1-.45-.2,1.4,1.4,0,0,1-.33-.27l.45-1.44.55.17.06.46a.39.39,0,0,0,.16.23.75.75,0,0,0,.3.17,1,1,0,0,0,.42.06,1.14,1.14,0,0,0,.41-.07,2,2,0,0,0,.45-.24l.9-2.91a.28.28,0,0,0-.13-.35l-.64-.39.1-.33Z" transform="translate(-8.86 -10.66)"/><path class="cls-1" d="M23.7,62.78a.72.72,0,0,1,.31.29.8.8,0,0,1,.14.39.62.62,0,0,1-.09.42.69.69,0,0,1-.48.38.87.87,0,0,1-.63-.09,1,1,0,0,1-.45-.48.7.7,0,0,1,0-.6.87.87,0,0,1,.31-.32.84.84,0,0,1,.42-.1A.8.8,0,0,1,23.7,62.78Zm4.35-5.05-.16.3-.67-.14a.44.44,0,0,0-.2,0,.27.27,0,0,0-.15.13l-1.62,3a.29.29,0,0,0,0,.22.51.51,0,0,0,.13.22l.41.47-.14.26-2.07-.74,2.18-4.08a.24.24,0,0,0,0-.2.31.31,0,0,0-.1-.16l-.46-.46.16-.3Z" transform="translate(-8.86 -10.66)"/><path class="cls-1" d="M23.42,54.79,22,59.62a.42.42,0,0,0,0,.22,1.18,1.18,0,0,0,.09.23l.21.37L22,60.7l-2.15-1.78.22-.26.73.33.86-2.79.25-.73,0,0L18.81,57.2l.38.7-.21.27-1.61-1.34.21-.26.45.08a1.41,1.41,0,0,0,.25,0,.33.33,0,0,0,.21,0l3.27-1.73,1.18-.52Z" transform="translate(-8.86 -10.66)"/><path class="cls-1" d="M20.2,51.54a1.42,1.42,0,0,1,.3.75,1.44,1.44,0,0,1-.14.74,1.7,1.7,0,0,1-.48.58,1.46,1.46,0,0,1-.85.31,1.77,1.77,0,0,1-.84-.18,3,3,0,0,1-.75-.48,3.06,3.06,0,0,1-.56-.59,1.67,1.67,0,0,1-.12-.19l-.16-.26L16.48,52l-.62.44c-.29.22-.46.41-.49.59a.82.82,0,0,0,.2.6,1.35,1.35,0,0,0,.37.34,2.77,2.77,0,0,0,.48.26l.5.18.41.15.13.17-.78.74c-.17-.11-.35-.22-.53-.35a4.2,4.2,0,0,1-.55-.45,4.9,4.9,0,0,1-.54-.62,3.19,3.19,0,0,1-.46-.9,1.69,1.69,0,0,1,0-1,1.55,1.55,0,0,1,.67-.88l2.25-1.61a.37.37,0,0,0,.15-.26.53.53,0,0,0-.1-.33L17.36,49l-.21-.17-.06-.09.32-.23.34.15a3.54,3.54,0,0,1,.41.26,1.5,1.5,0,0,1,.34.32,1.44,1.44,0,0,1,.3.75.83.83,0,0,1-.41.64l0,0a2,2,0,0,1,.83.13,1.64,1.64,0,0,1,.57.36A3,3,0,0,1,20.2,51.54Zm-1.06-.12a1.66,1.66,0,0,0-.43-.4,1,1,0,0,0-.61-.16l-1.27.91a4.26,4.26,0,0,0,.69.75,1.31,1.31,0,0,0,.68.33,1,1,0,0,0,.69-.2,1,1,0,0,0,.37-.44.72.72,0,0,0,0-.43A1.17,1.17,0,0,0,19.14,51.42Z" transform="translate(-8.86 -10.66)"/><path class="cls-1" d="M17.55,48.27l-1.36.57-.2-.47.45-.39a.46.46,0,0,0,.14-.22,1.2,1.2,0,0,0,.05-.23,2.58,2.58,0,0,0,0-.56,1.88,1.88,0,0,0-.15-.64,1.29,1.29,0,0,0-.25-.41.71.71,0,0,0-.37-.22.78.78,0,0,0-.49,0,.58.58,0,0,0-.39.46,2.5,2.5,0,0,0,0,.72q0,.28.06.54c0,.17,0,.33,0,.48a1.63,1.63,0,0,1-.18,1,1.43,1.43,0,0,1-.76.64,1.36,1.36,0,0,1-.93,0,2.18,2.18,0,0,1-.87-.54,3,3,0,0,1-.63-1,5.79,5.79,0,0,1-.28-.83,7.64,7.64,0,0,1-.15-.8l1.36-.63.2.48-.45.42a.41.41,0,0,0-.12.19.83.83,0,0,0-.06.21,2.52,2.52,0,0,0,0,.47,2.17,2.17,0,0,0,.13.5,1.12,1.12,0,0,0,.38.46.62.62,0,0,0,.61,0,.67.67,0,0,0,.43-.44,1.79,1.79,0,0,0,0-.66c0-.17,0-.34-.05-.5s0-.31,0-.43a2.55,2.55,0,0,1,.1-1.1,1.16,1.16,0,0,1,.72-.7,1.49,1.49,0,0,1,1.07-.07,2.11,2.11,0,0,1,.9.59,3.8,3.8,0,0,1,.62,1,4.25,4.25,0,0,1,.31,1.06C17.49,47.71,17.53,48,17.55,48.27Z" transform="translate(-8.86 -10.66)"/><path class="cls-1" d="M10.05,41.08h.62L11,42.83l3.37-.65a.45.45,0,0,0,.33-.25,1.25,1.25,0,0,0,.14-.45,1.4,1.4,0,0,0,0-.41,2.15,2.15,0,0,0-.11-.37,1.8,1.8,0,0,0-.15-.31l0-.14.38-.07.25.31a5.71,5.71,0,0,1,.31.51,2.77,2.77,0,0,1,.22.65,2.23,2.23,0,0,1,0,.81,1.39,1.39,0,0,1-.26.62.86.86,0,0,1-.55.32l-3.68.71.17.86-.43.08c-.08-.18-.15-.34-.22-.47a.7.7,0,0,0-.3-.29.9.9,0,0,0-.51,0l-.7.09-.4-1.09,1.55-.3Z" transform="translate(-8.86 -10.66)"/><path class="cls-1" d="M15.4,38.57a1.43,1.43,0,0,1-.22.78,1.49,1.49,0,0,1-.56.5,1.58,1.58,0,0,1-.73.16,1.43,1.43,0,0,1-.87-.27,1.86,1.86,0,0,1-.56-.65,3,3,0,0,1-.3-.84,3.37,3.37,0,0,1-.08-.81s0-.12,0-.23l0-.3c0-.1,0-.17,0-.22l-.76,0a1.08,1.08,0,0,0-.74.16.75.75,0,0,0-.21.6,1.23,1.23,0,0,0,.08.49,3.22,3.22,0,0,0,.23.5c.09.16.19.31.28.45l.24.37v.21l-1.06.11c-.07-.18-.14-.38-.21-.59a4.6,4.6,0,0,1-.21-1.52,3.33,3.33,0,0,1,.18-1,1.68,1.68,0,0,1,.55-.8,1.53,1.53,0,0,1,1.07-.29l2.77.09a.38.38,0,0,0,.28-.12.44.44,0,0,0,.11-.32,1.22,1.22,0,0,0,0-.22c0-.09,0-.18-.05-.26v-.1h.39a2.89,2.89,0,0,1,.18.33,4.05,4.05,0,0,1,.17.46,1.26,1.26,0,0,1,.07.46,1.33,1.33,0,0,1-.22.77.8.8,0,0,1-.71.26v0a2,2,0,0,1,.58.6,2.19,2.19,0,0,1,.24.64A3,3,0,0,1,15.4,38.57Zm-.77-.74a1.54,1.54,0,0,0-.1-.58.94.94,0,0,0-.38-.5l-1.56,0a3.83,3.83,0,0,0,.09,1,1.26,1.26,0,0,0,.34.68.94.94,0,0,0,.67.26,1,1,0,0,0,.56-.12.74.74,0,0,0,.29-.32A.85.85,0,0,0,14.63,37.83Z" transform="translate(-8.86 -10.66)"/><path class="cls-1" d="M16.05,32.53l-5,.67a.4.4,0,0,0-.2.07,1,1,0,0,0-.17.18l-.26.33-.33-.09L10.84,31l.33.09v.8l2.9-.36.76-.06v0L12,29.31l-.49.65-.32-.1.55-2,.33.09.12.44a.83.83,0,0,0,.06.25.28.28,0,0,0,.13.16l2.92,2.28.95.87Z" transform="translate(-8.86 -10.66)"/><path class="cls-1" d="M17.72,28.26a1.42,1.42,0,0,1-.57.57,1.34,1.34,0,0,1-.73.18,1.51,1.51,0,0,1-.72-.21,1.46,1.46,0,0,1-.63-.65,1.72,1.72,0,0,1-.18-.84,2.94,2.94,0,0,1,.14-.88,3.25,3.25,0,0,1,.31-.75l.13-.19.17-.25a1.31,1.31,0,0,0,.12-.19l-.65-.38a1.11,1.11,0,0,0-.73-.21.79.79,0,0,0-.48.42,1.43,1.43,0,0,0-.16.48,3.27,3.27,0,0,0,0,.54l0,.54c0,.16,0,.31,0,.43l-.11.18-1-.4q0-.3.09-.63a5.59,5.59,0,0,1,.2-.68,4.16,4.16,0,0,1,.35-.75A3,3,0,0,1,14,23.8a1.73,1.73,0,0,1,.86-.44,1.58,1.58,0,0,1,1.08.26L18.28,25a.32.32,0,0,0,.3,0,.44.44,0,0,0,.25-.22.61.61,0,0,0,.08-.21c0-.09.06-.18.08-.26l.05-.09.34.19a2.36,2.36,0,0,1,0,.38,4.19,4.19,0,0,1-.06.48,1.75,1.75,0,0,1-.16.44,1.28,1.28,0,0,1-.56.57.79.79,0,0,1-.75-.11l0,0a1.9,1.9,0,0,1,.22.81,1.81,1.81,0,0,1-.09.67A2.91,2.91,0,0,1,17.72,28.26Zm-.32-1a1.76,1.76,0,0,0,.19-.56,1,1,0,0,0-.1-.62l-1.34-.78a4.29,4.29,0,0,0-.42.92,1.41,1.41,0,0,0,0,.76.93.93,0,0,0,.47.55,1,1,0,0,0,.55.16.67.67,0,0,0,.4-.14A1.06,1.06,0,0,0,17.4,27.24Z" transform="translate(-8.86 -10.66)"/><circle class="cls-1" cx="12.86" cy="8.73" r="1.75"/></svg>